<?xml version="1.0" encoding="utf-8"?>
<!-- Generator: Adobe Illustrator 21.0.0, SVG Export Plug-In . SVG Version: 6.00 Build 0)  -->
<svg version="1.1" id="Livello_1" xmlns="http://www.w3.org/2000/svg" xmlns:xlink="http://www.w3.org/1999/xlink" x="0px" y="0px"
	 viewBox="0 0 1500 938" style="enable-background:new 0 0 1500 938;" xml:space="preserve">
<style type="text/css">
	.st0{fill:none;stroke:#FFFFFF;stroke-miterlimit:10;}
	.st1{fill:none;stroke:#FFFFFF;stroke-width:0.25;stroke-miterlimit:10;}
</style>
<g>
	<g>
		<rect x="42.1" y="36.7" width="1415.8" height="864.6"/>
		<line x1="42.1" y1="884.4" x2="1457.9" y2="884.4"/>
		<line x1="42.1" y1="867.4" x2="1457.9" y2="867.4"/>
		<line x1="42.1" y1="850.5" x2="1457.9" y2="850.5"/>
		<line x1="42.1" y1="833.5" x2="1457.9" y2="833.5"/>
		<line x1="42.1" y1="816.5" x2="1457.9" y2="816.5"/>
		<line x1="42.1" y1="799.6" x2="1457.9" y2="799.6"/>
		<line x1="42.1" y1="782.6" x2="1457.9" y2="782.6"/>
		<line x1="42.1" y1="765.7" x2="1457.9" y2="765.7"/>
		<line x1="42.1" y1="748.7" x2="1457.9" y2="748.7"/>
		<line x1="42.1" y1="731.8" x2="1457.9" y2="731.8"/>
		<line x1="42.1" y1="714.8" x2="1457.9" y2="714.8"/>
		<line x1="42.1" y1="697.9" x2="1457.9" y2="697.9"/>
		<line x1="42.1" y1="680.9" x2="1457.9" y2="680.9"/>
		<line x1="42.1" y1="664" x2="1457.9" y2="664"/>
		<line x1="42.1" y1="647" x2="1457.9" y2="647"/>
		<line x1="42.1" y1="630.1" x2="1457.9" y2="630.1"/>
		<line x1="42.1" y1="613.1" x2="1457.9" y2="613.1"/>
		<line x1="42.1" y1="596.2" x2="1457.9" y2="596.2"/>
		<line x1="42.1" y1="579.2" x2="1457.9" y2="579.2"/>
		<line x1="42.1" y1="562.2" x2="1457.9" y2="562.2"/>
		<line x1="42.1" y1="545.3" x2="1457.9" y2="545.3"/>
		<line x1="42.1" y1="528.3" x2="1457.9" y2="528.3"/>
		<line x1="42.1" y1="511.4" x2="1457.9" y2="511.4"/>
		<line x1="42.1" y1="494.4" x2="1457.9" y2="494.4"/>
		<line x1="42.1" y1="477.5" x2="1457.9" y2="477.5"/>
		<line x1="42.1" y1="460.5" x2="1457.9" y2="460.5"/>
		<line x1="42.1" y1="443.6" x2="1457.9" y2="443.6"/>
		<line x1="42.1" y1="426.6" x2="1457.9" y2="426.6"/>
		<line x1="42.1" y1="409.7" x2="1457.9" y2="409.7"/>
		<line x1="42.1" y1="392.7" x2="1457.9" y2="392.7"/>
		<line x1="42.1" y1="375.8" x2="1457.9" y2="375.8"/>
		<line x1="42.1" y1="358.8" x2="1457.9" y2="358.8"/>
		<line x1="42.1" y1="341.8" x2="1457.9" y2="341.8"/>
		<line x1="42.1" y1="324.9" x2="1457.9" y2="324.9"/>
		<line x1="42.1" y1="307.9" x2="1457.9" y2="307.9"/>
		<line x1="42.1" y1="291" x2="1457.9" y2="291"/>
		<line x1="42.1" y1="274" x2="1457.9" y2="274"/>
		<line x1="42.1" y1="257.1" x2="1457.9" y2="257.1"/>
		<line x1="42.1" y1="240.1" x2="1457.9" y2="240.1"/>
		<line x1="42.1" y1="223.2" x2="1457.9" y2="223.2"/>
		<line x1="42.1" y1="206.2" x2="1457.9" y2="206.2"/>
		<line x1="42.1" y1="189.3" x2="1457.9" y2="189.3"/>
		<line x1="42.1" y1="172.3" x2="1457.9" y2="172.3"/>
		<line x1="42.1" y1="155.4" x2="1457.9" y2="155.4"/>
		<line x1="42.1" y1="138.4" x2="1457.9" y2="138.4"/>
		<line x1="42.1" y1="121.5" x2="1457.9" y2="121.5"/>
		<line x1="42.1" y1="104.5" x2="1457.9" y2="104.5"/>
		<line x1="42.1" y1="87.5" x2="1457.9" y2="87.5"/>
		<line x1="42.1" y1="70.6" x2="1457.9" y2="70.6"/>
		<line x1="42.1" y1="53.6" x2="1457.9" y2="53.6"/>
		<line x1="1430.1" y1="36.7" x2="1430.1" y2="901.3"/>
		<line x1="1402.4" y1="36.7" x2="1402.4" y2="901.3"/>
		<line x1="1374.6" y1="36.7" x2="1374.6" y2="901.3"/>
		<line x1="1346.9" y1="36.7" x2="1346.9" y2="901.3"/>
		<line x1="1319.1" y1="36.7" x2="1319.1" y2="901.3"/>
		<line x1="1291.3" y1="36.7" x2="1291.3" y2="901.3"/>
		<line x1="1263.6" y1="36.7" x2="1263.6" y2="901.3"/>
		<line x1="1235.8" y1="36.7" x2="1235.8" y2="901.3"/>
		<line x1="1208.1" y1="36.7" x2="1208.1" y2="901.3"/>
		<line x1="1180.3" y1="36.7" x2="1180.3" y2="901.3"/>
		<line x1="1152.5" y1="36.7" x2="1152.5" y2="901.3"/>
		<line x1="1124.8" y1="36.7" x2="1124.8" y2="901.3"/>
		<line x1="1097" y1="36.7" x2="1097" y2="901.3"/>
		<line x1="1069.2" y1="36.7" x2="1069.2" y2="901.3"/>
		<line x1="1041.5" y1="36.7" x2="1041.5" y2="901.3"/>
		<line x1="1013.7" y1="36.7" x2="1013.7" y2="901.3"/>
		<line x1="986" y1="36.7" x2="986" y2="901.3"/>
		<line x1="958.2" y1="36.7" x2="958.2" y2="901.3"/>
		<line x1="930.4" y1="36.7" x2="930.4" y2="901.3"/>
		<line x1="902.7" y1="36.7" x2="902.7" y2="901.3"/>
		<line x1="874.9" y1="36.7" x2="874.9" y2="901.3"/>
		<line x1="847.2" y1="36.7" x2="847.2" y2="901.3"/>
		<line x1="819.4" y1="36.7" x2="819.4" y2="901.3"/>
		<line x1="791.6" y1="36.7" x2="791.6" y2="901.3"/>
		<line x1="763.9" y1="36.7" x2="763.9" y2="901.3"/>
		<line x1="736.1" y1="36.7" x2="736.1" y2="901.3"/>
		<line x1="708.4" y1="36.7" x2="708.4" y2="901.3"/>
		<line x1="680.6" y1="36.7" x2="680.6" y2="901.3"/>
		<line x1="652.8" y1="36.7" x2="652.8" y2="901.3"/>
		<line x1="625.1" y1="36.7" x2="625.1" y2="901.3"/>
		<line x1="597.3" y1="36.7" x2="597.3" y2="901.3"/>
		<line x1="569.6" y1="36.7" x2="569.6" y2="901.3"/>
		<line x1="541.8" y1="36.7" x2="541.8" y2="901.3"/>
		<line x1="514" y1="36.7" x2="514" y2="901.3"/>
		<line x1="486.3" y1="36.7" x2="486.3" y2="901.3"/>
		<line x1="458.5" y1="36.7" x2="458.5" y2="901.3"/>
		<line x1="430.8" y1="36.7" x2="430.8" y2="901.3"/>
		<line x1="403" y1="36.7" x2="403" y2="901.3"/>
		<line x1="375.2" y1="36.7" x2="375.2" y2="901.3"/>
		<line x1="347.5" y1="36.7" x2="347.5" y2="901.3"/>
		<line x1="319.7" y1="36.7" x2="319.7" y2="901.3"/>
		<line x1="291.9" y1="36.7" x2="291.9" y2="901.3"/>
		<line x1="264.2" y1="36.7" x2="264.2" y2="901.3"/>
		<line x1="236.4" y1="36.7" x2="236.4" y2="901.3"/>
		<line x1="208.7" y1="36.7" x2="208.7" y2="901.3"/>
		<line x1="180.9" y1="36.7" x2="180.9" y2="901.3"/>
		<line x1="153.1" y1="36.7" x2="153.1" y2="901.3"/>
		<line x1="125.4" y1="36.7" x2="125.4" y2="901.3"/>
		<line x1="97.6" y1="36.7" x2="97.6" y2="901.3"/>
		<line x1="69.9" y1="36.7" x2="69.9" y2="901.3"/>
	</g>
	<g>
		<rect x="42.1" y="36.7" class="st0" width="1415.8" height="864.6"/>
		<line class="st0" x1="42.1" y1="884.4" x2="1457.9" y2="884.4"/>
		<line class="st0" x1="42.1" y1="867.4" x2="1457.9" y2="867.4"/>
		<line class="st0" x1="42.1" y1="850.5" x2="1457.9" y2="850.5"/>
		<line class="st0" x1="42.1" y1="833.5" x2="1457.9" y2="833.5"/>
		<line class="st0" x1="42.1" y1="816.5" x2="1457.9" y2="816.5"/>
		<line class="st0" x1="42.1" y1="799.6" x2="1457.9" y2="799.6"/>
		<line class="st0" x1="42.1" y1="782.6" x2="1457.9" y2="782.6"/>
		<line class="st0" x1="42.1" y1="765.7" x2="1457.9" y2="765.7"/>
		<line class="st0" x1="42.1" y1="748.7" x2="1457.9" y2="748.7"/>
		<line class="st0" x1="42.1" y1="731.8" x2="1457.9" y2="731.8"/>
		<line class="st0" x1="42.1" y1="714.8" x2="1457.9" y2="714.8"/>
		<line class="st0" x1="42.1" y1="697.9" x2="1457.9" y2="697.9"/>
		<line class="st0" x1="42.1" y1="680.9" x2="1457.9" y2="680.9"/>
		<line class="st0" x1="42.1" y1="664" x2="1457.9" y2="664"/>
		<line class="st0" x1="42.1" y1="647" x2="1457.9" y2="647"/>
		<line class="st0" x1="42.1" y1="630.1" x2="1457.9" y2="630.1"/>
		<line class="st0" x1="42.1" y1="613.1" x2="1457.9" y2="613.1"/>
		<line class="st0" x1="42.1" y1="596.2" x2="1457.9" y2="596.2"/>
		<line class="st0" x1="42.1" y1="579.2" x2="1457.9" y2="579.2"/>
		<line class="st0" x1="42.1" y1="562.2" x2="1457.9" y2="562.2"/>
		<line class="st0" x1="42.1" y1="545.3" x2="1457.9" y2="545.3"/>
		<line class="st0" x1="42.1" y1="528.3" x2="1457.9" y2="528.3"/>
		<line class="st0" x1="42.1" y1="511.4" x2="1457.9" y2="511.4"/>
		<line class="st0" x1="42.1" y1="494.4" x2="1457.9" y2="494.4"/>
		<line class="st0" x1="42.1" y1="477.5" x2="1457.9" y2="477.5"/>
		<line class="st0" x1="42.1" y1="460.5" x2="1457.9" y2="460.5"/>
		<line class="st0" x1="42.1" y1="443.6" x2="1457.9" y2="443.6"/>
		<line class="st0" x1="42.1" y1="426.6" x2="1457.9" y2="426.6"/>
		<line class="st0" x1="42.1" y1="409.7" x2="1457.9" y2="409.7"/>
		<line class="st0" x1="42.1" y1="392.7" x2="1457.9" y2="392.7"/>
		<line class="st0" x1="42.1" y1="375.8" x2="1457.9" y2="375.8"/>
		<line class="st0" x1="42.1" y1="358.8" x2="1457.9" y2="358.8"/>
		<line class="st0" x1="42.1" y1="341.8" x2="1457.9" y2="341.8"/>
		<line class="st0" x1="42.1" y1="324.9" x2="1457.9" y2="324.9"/>
		<line class="st0" x1="42.1" y1="307.9" x2="1457.9" y2="307.9"/>
		<line class="st0" x1="42.1" y1="291" x2="1457.9" y2="291"/>
		<line class="st0" x1="42.1" y1="274" x2="1457.9" y2="274"/>
		<line class="st0" x1="42.1" y1="257.1" x2="1457.9" y2="257.1"/>
		<line class="st0" x1="42.1" y1="240.1" x2="1457.9" y2="240.1"/>
		<line class="st0" x1="42.1" y1="223.2" x2="1457.9" y2="223.2"/>
		<line class="st0" x1="42.1" y1="206.2" x2="1457.9" y2="206.2"/>
		<line class="st0" x1="42.1" y1="189.3" x2="1457.9" y2="189.3"/>
		<line class="st0" x1="42.1" y1="172.3" x2="1457.9" y2="172.3"/>
		<line class="st0" x1="42.1" y1="155.4" x2="1457.9" y2="155.4"/>
		<line class="st0" x1="42.1" y1="138.4" x2="1457.9" y2="138.4"/>
		<line class="st0" x1="42.1" y1="121.5" x2="1457.9" y2="121.5"/>
		<line class="st0" x1="42.1" y1="104.5" x2="1457.9" y2="104.5"/>
		<line class="st0" x1="42.1" y1="87.5" x2="1457.9" y2="87.5"/>
		<line class="st0" x1="42.1" y1="70.6" x2="1457.9" y2="70.6"/>
		<line class="st0" x1="42.1" y1="53.6" x2="1457.9" y2="53.6"/>
		<line class="st0" x1="1430.1" y1="36.7" x2="1430.1" y2="901.3"/>
		<line class="st0" x1="1402.4" y1="36.7" x2="1402.4" y2="901.3"/>
		<line class="st0" x1="1374.6" y1="36.7" x2="1374.6" y2="901.3"/>
		<line class="st0" x1="1346.9" y1="36.7" x2="1346.9" y2="901.3"/>
		<line class="st0" x1="1319.1" y1="36.7" x2="1319.1" y2="901.3"/>
		<line class="st0" x1="1291.3" y1="36.7" x2="1291.3" y2="901.3"/>
		<line class="st0" x1="1263.6" y1="36.7" x2="1263.6" y2="901.3"/>
		<line class="st0" x1="1235.8" y1="36.7" x2="1235.8" y2="901.3"/>
		<line class="st0" x1="1208.1" y1="36.7" x2="1208.1" y2="901.3"/>
		<line class="st0" x1="1180.3" y1="36.7" x2="1180.3" y2="901.3"/>
		<line class="st0" x1="1152.5" y1="36.7" x2="1152.5" y2="901.3"/>
		<line class="st0" x1="1124.8" y1="36.7" x2="1124.8" y2="901.3"/>
		<line class="st0" x1="1097" y1="36.7" x2="1097" y2="901.3"/>
		<line class="st0" x1="1069.2" y1="36.7" x2="1069.2" y2="901.3"/>
		<line class="st0" x1="1041.5" y1="36.7" x2="1041.5" y2="901.3"/>
		<line class="st0" x1="1013.7" y1="36.7" x2="1013.7" y2="901.3"/>
		<line class="st0" x1="986" y1="36.7" x2="986" y2="901.3"/>
		<line class="st0" x1="958.2" y1="36.7" x2="958.2" y2="901.3"/>
		<line class="st0" x1="930.4" y1="36.7" x2="930.4" y2="901.3"/>
		<line class="st0" x1="902.7" y1="36.7" x2="902.7" y2="901.3"/>
		<line class="st0" x1="874.9" y1="36.7" x2="874.9" y2="901.3"/>
		<line class="st0" x1="847.2" y1="36.7" x2="847.2" y2="901.3"/>
		<line class="st0" x1="819.4" y1="36.7" x2="819.4" y2="901.3"/>
		<line class="st0" x1="791.6" y1="36.7" x2="791.6" y2="901.3"/>
		<line class="st0" x1="763.9" y1="36.7" x2="763.9" y2="901.3"/>
		<line class="st0" x1="736.1" y1="36.7" x2="736.1" y2="901.3"/>
		<line class="st0" x1="708.4" y1="36.7" x2="708.4" y2="901.3"/>
		<line class="st0" x1="680.6" y1="36.7" x2="680.6" y2="901.3"/>
		<line class="st0" x1="652.8" y1="36.7" x2="652.8" y2="901.3"/>
		<line class="st0" x1="625.1" y1="36.7" x2="625.1" y2="901.3"/>
		<line class="st0" x1="597.3" y1="36.7" x2="597.3" y2="901.3"/>
		<line class="st0" x1="569.6" y1="36.7" x2="569.6" y2="901.3"/>
		<line class="st0" x1="541.8" y1="36.7" x2="541.8" y2="901.3"/>
		<line class="st0" x1="514" y1="36.7" x2="514" y2="901.3"/>
		<line class="st0" x1="486.3" y1="36.7" x2="486.3" y2="901.3"/>
		<line class="st0" x1="458.5" y1="36.7" x2="458.5" y2="901.3"/>
		<line class="st0" x1="430.8" y1="36.7" x2="430.8" y2="901.3"/>
		<line class="st0" x1="403" y1="36.7" x2="403" y2="901.3"/>
		<line class="st0" x1="375.2" y1="36.7" x2="375.2" y2="901.3"/>
		<line class="st0" x1="347.5" y1="36.7" x2="347.5" y2="901.3"/>
		<line class="st0" x1="319.7" y1="36.7" x2="319.7" y2="901.3"/>
		<line class="st0" x1="291.9" y1="36.7" x2="291.9" y2="901.3"/>
		<line class="st0" x1="264.2" y1="36.7" x2="264.2" y2="901.3"/>
		<line class="st0" x1="236.4" y1="36.7" x2="236.4" y2="901.3"/>
		<line class="st0" x1="208.7" y1="36.7" x2="208.7" y2="901.3"/>
		<line class="st0" x1="180.9" y1="36.7" x2="180.9" y2="901.3"/>
		<line class="st0" x1="153.1" y1="36.7" x2="153.1" y2="901.3"/>
		<line class="st0" x1="125.4" y1="36.7" x2="125.4" y2="901.3"/>
		<line class="st0" x1="97.6" y1="36.7" x2="97.6" y2="901.3"/>
		<line class="st0" x1="69.9" y1="36.7" x2="69.9" y2="901.3"/>
	</g>
	<g>
		<rect x="42.1" y="36.7" class="st1" width="1415.8" height="864.6"/>
		<line class="st1" x1="42.1" y1="884.4" x2="1457.9" y2="884.4"/>
		<line class="st1" x1="42.1" y1="867.4" x2="1457.9" y2="867.4"/>
		<line class="st1" x1="42.1" y1="850.5" x2="1457.9" y2="850.5"/>
		<line class="st1" x1="42.1" y1="833.5" x2="1457.9" y2="833.5"/>
		<line class="st1" x1="42.1" y1="816.5" x2="1457.9" y2="816.5"/>
		<line class="st1" x1="42.1" y1="799.6" x2="1457.9" y2="799.6"/>
		<line class="st1" x1="42.1" y1="782.6" x2="1457.9" y2="782.6"/>
		<line class="st1" x1="42.1" y1="765.7" x2="1457.9" y2="765.7"/>
		<line class="st1" x1="42.1" y1="748.7" x2="1457.9" y2="748.7"/>
		<line class="st1" x1="42.1" y1="731.8" x2="1457.9" y2="731.8"/>
		<line class="st1" x1="42.1" y1="714.8" x2="1457.9" y2="714.8"/>
		<line class="st1" x1="42.1" y1="697.9" x2="1457.9" y2="697.9"/>
		<line class="st1" x1="42.1" y1="680.9" x2="1457.9" y2="680.9"/>
		<line class="st1" x1="42.1" y1="664" x2="1457.9" y2="664"/>
		<line class="st1" x1="42.1" y1="647" x2="1457.9" y2="647"/>
		<line class="st1" x1="42.1" y1="630.1" x2="1457.9" y2="630.1"/>
		<line class="st1" x1="42.1" y1="613.1" x2="1457.9" y2="613.1"/>
		<line class="st1" x1="42.1" y1="596.2" x2="1457.9" y2="596.2"/>
		<line class="st1" x1="42.1" y1="579.2" x2="1457.9" y2="579.2"/>
		<line class="st1" x1="42.1" y1="562.2" x2="1457.9" y2="562.2"/>
		<line class="st1" x1="42.1" y1="545.3" x2="1457.9" y2="545.3"/>
		<line class="st1" x1="42.1" y1="528.3" x2="1457.9" y2="528.3"/>
		<line class="st1" x1="42.1" y1="511.4" x2="1457.9" y2="511.4"/>
		<line class="st1" x1="42.1" y1="494.4" x2="1457.9" y2="494.4"/>
		<line class="st1" x1="42.1" y1="477.5" x2="1457.9" y2="477.5"/>
		<line class="st1" x1="42.1" y1="460.5" x2="1457.9" y2="460.5"/>
		<line class="st1" x1="42.1" y1="443.6" x2="1457.9" y2="443.6"/>
		<line class="st1" x1="42.1" y1="426.6" x2="1457.9" y2="426.6"/>
		<line class="st1" x1="42.1" y1="409.7" x2="1457.9" y2="409.7"/>
		<line class="st1" x1="42.1" y1="392.7" x2="1457.9" y2="392.7"/>
		<line class="st1" x1="42.1" y1="375.8" x2="1457.9" y2="375.8"/>
		<line class="st1" x1="42.1" y1="358.8" x2="1457.9" y2="358.8"/>
		<line class="st1" x1="42.1" y1="341.8" x2="1457.9" y2="341.8"/>
		<line class="st1" x1="42.1" y1="324.9" x2="1457.9" y2="324.9"/>
		<line class="st1" x1="42.1" y1="307.9" x2="1457.9" y2="307.9"/>
		<line class="st1" x1="42.1" y1="291" x2="1457.9" y2="291"/>
		<line class="st1" x1="42.1" y1="274" x2="1457.9" y2="274"/>
		<line class="st1" x1="42.1" y1="257.1" x2="1457.9" y2="257.1"/>
		<line class="st1" x1="42.1" y1="240.1" x2="1457.9" y2="240.1"/>
		<line class="st1" x1="42.1" y1="223.2" x2="1457.9" y2="223.2"/>
		<line class="st1" x1="42.1" y1="206.2" x2="1457.9" y2="206.2"/>
		<line class="st1" x1="42.1" y1="189.3" x2="1457.9" y2="189.3"/>
		<line class="st1" x1="42.1" y1="172.3" x2="1457.9" y2="172.3"/>
		<line class="st1" x1="42.1" y1="155.4" x2="1457.9" y2="155.4"/>
		<line class="st1" x1="42.1" y1="138.4" x2="1457.9" y2="138.4"/>
		<line class="st1" x1="42.1" y1="121.5" x2="1457.9" y2="121.5"/>
		<line class="st1" x1="42.1" y1="104.5" x2="1457.9" y2="104.5"/>
		<line class="st1" x1="42.1" y1="87.5" x2="1457.9" y2="87.5"/>
		<line class="st1" x1="42.1" y1="70.6" x2="1457.9" y2="70.6"/>
		<line class="st1" x1="42.1" y1="53.6" x2="1457.9" y2="53.6"/>
		<line class="st1" x1="1430.1" y1="36.7" x2="1430.1" y2="901.3"/>
		<line class="st1" x1="1402.4" y1="36.7" x2="1402.4" y2="901.3"/>
		<line class="st1" x1="1374.6" y1="36.7" x2="1374.6" y2="901.3"/>
		<line class="st1" x1="1346.9" y1="36.7" x2="1346.9" y2="901.3"/>
		<line class="st1" x1="1319.1" y1="36.7" x2="1319.1" y2="901.3"/>
		<line class="st1" x1="1291.3" y1="36.7" x2="1291.3" y2="901.3"/>
		<line class="st1" x1="1263.6" y1="36.7" x2="1263.6" y2="901.3"/>
		<line class="st1" x1="1235.8" y1="36.7" x2="1235.8" y2="901.3"/>
		<line class="st1" x1="1208.1" y1="36.7" x2="1208.1" y2="901.3"/>
		<line class="st1" x1="1180.3" y1="36.7" x2="1180.3" y2="901.3"/>
		<line class="st1" x1="1152.5" y1="36.7" x2="1152.5" y2="901.3"/>
		<line class="st1" x1="1124.8" y1="36.7" x2="1124.8" y2="901.3"/>
		<line class="st1" x1="1097" y1="36.7" x2="1097" y2="901.3"/>
		<line class="st1" x1="1069.2" y1="36.7" x2="1069.2" y2="901.3"/>
		<line class="st1" x1="1041.5" y1="36.7" x2="1041.5" y2="901.3"/>
		<line class="st1" x1="1013.7" y1="36.7" x2="1013.7" y2="901.3"/>
		<line class="st1" x1="986" y1="36.7" x2="986" y2="901.3"/>
		<line class="st1" x1="958.2" y1="36.7" x2="958.2" y2="901.3"/>
		<line class="st1" x1="930.4" y1="36.7" x2="930.4" y2="901.3"/>
		<line class="st1" x1="902.7" y1="36.7" x2="902.7" y2="901.3"/>
		<line class="st1" x1="874.9" y1="36.7" x2="874.9" y2="901.3"/>
		<line class="st1" x1="847.2" y1="36.7" x2="847.2" y2="901.3"/>
		<line class="st1" x1="819.4" y1="36.7" x2="819.4" y2="901.3"/>
		<line class="st1" x1="791.6" y1="36.7" x2="791.6" y2="901.3"/>
		<line class="st1" x1="763.9" y1="36.7" x2="763.9" y2="901.3"/>
		<line class="st1" x1="736.1" y1="36.7" x2="736.1" y2="901.3"/>
		<line class="st1" x1="708.4" y1="36.7" x2="708.4" y2="901.3"/>
		<line class="st1" x1="680.6" y1="36.7" x2="680.6" y2="901.3"/>
		<line class="st1" x1="652.8" y1="36.7" x2="652.8" y2="901.3"/>
		<line class="st1" x1="625.1" y1="36.7" x2="625.1" y2="901.3"/>
		<line class="st1" x1="597.3" y1="36.7" x2="597.3" y2="901.3"/>
		<line class="st1" x1="569.6" y1="36.7" x2="569.6" y2="901.3"/>
		<line class="st1" x1="541.8" y1="36.7" x2="541.8" y2="901.3"/>
		<line class="st1" x1="514" y1="36.7" x2="514" y2="901.3"/>
		<line class="st1" x1="486.3" y1="36.7" x2="486.3" y2="901.3"/>
		<line class="st1" x1="458.5" y1="36.7" x2="458.5" y2="901.3"/>
		<line class="st1" x1="430.8" y1="36.7" x2="430.8" y2="901.3"/>
		<line class="st1" x1="403" y1="36.7" x2="403" y2="901.3"/>
		<line class="st1" x1="375.2" y1="36.7" x2="375.2" y2="901.3"/>
		<line class="st1" x1="347.5" y1="36.7" x2="347.5" y2="901.3"/>
		<line class="st1" x1="319.7" y1="36.7" x2="319.7" y2="901.3"/>
		<line class="st1" x1="291.9" y1="36.7" x2="291.9" y2="901.3"/>
		<line class="st1" x1="264.2" y1="36.7" x2="264.2" y2="901.3"/>
		<line class="st1" x1="236.4" y1="36.7" x2="236.4" y2="901.3"/>
		<line class="st1" x1="208.7" y1="36.7" x2="208.7" y2="901.3"/>
		<line class="st1" x1="180.9" y1="36.7" x2="180.9" y2="901.3"/>
		<line class="st1" x1="153.1" y1="36.7" x2="153.1" y2="901.3"/>
		<line class="st1" x1="125.4" y1="36.7" x2="125.4" y2="901.3"/>
		<line class="st1" x1="97.6" y1="36.7" x2="97.6" y2="901.3"/>
		<line class="st1" x1="69.9" y1="36.7" x2="69.9" y2="901.3"/>
	</g>
</g>
</svg>
